<?xml version="1.0" encoding="UTF-8"?>
<svg viewBox="0 0 568.07471 500.05563" xmlns="http://www.w3.org/2000/svg" xmlns:xlink="http://www.w3.org/1999/xlink">
 <defs>
  <linearGradient id="b">
   <stop stop-color="#ffb142" offset="0"/>
   <stop stop-color="#c87600" offset="1"/>
  </linearGradient>
  <linearGradient id="a">
   <stop stop-opacity="0" offset="0"/>
   <stop stop-opacity="0" offset=".6"/>
   <stop offset="1"/>
  </linearGradient>
  <linearGradient id="e">
   <stop stop-color="#fff" offset="0"/>
   <stop stop-color="#fff" stop-opacity="0" offset="1"/>
  </linearGradient>
  <linearGradient id="o" x1="95.31" x2="102.08" y1="184.39" y2="105.54" gradientUnits="userSpaceOnUse">
   <stop stop-opacity=".6784" offset="0"/>
   <stop stop-opacity=".3294" offset=".57"/>
   <stop stop-opacity="0" offset="1"/>
  </linearGradient>
  <linearGradient id="n" x1="150.68" x2="89.969" gradientUnits="userSpaceOnUse" spreadMethod="reflect">
   <stop stop-color="#fff" offset="0"/>
   <stop stop-color="#bf9e15" offset="0"/>
   <stop stop-color="#fae79f" offset="1"/>
  </linearGradient>
  <linearGradient id="m" x1="145.78" x2="92.919" y1="30.686" y2="64.382" gradientUnits="userSpaceOnUse">
   <stop stop-color="#bf9e15" stop-opacity=".6637" offset="0"/>
   <stop stop-color="#fae79f" stop-opacity=".8761" offset="1"/>
  </linearGradient>
  <linearGradient id="d" x1="356.47" x2="356.47" y1="630.34" y2="644.42" gradientUnits="userSpaceOnUse" xlink:href="#b"/>
  <linearGradient id="c" x1="356.47" x2="356.47" y1="630.34" y2="644.42" gradientUnits="userSpaceOnUse" xlink:href="#b"/>
  <linearGradient id="t" x1="356.47" x2="356.47" y1="630.34" y2="644.42" gradientUnits="userSpaceOnUse" xlink:href="#b"/>
  <linearGradient id="s" x1="356.47" x2="356.47" y1="630.34" y2="644.42" gradientUnits="userSpaceOnUse" xlink:href="#b"/>
  <linearGradient id="r" x1="346.24" x2="359.47" gradientTransform="matrix(.63632 -.08118 .09847 .7718 72.701 53.22)" gradientUnits="userSpaceOnUse" xlink:href="#b"/>
  <linearGradient id="q" x1="-274.36" x2="175.75" gradientUnits="userSpaceOnUse" xlink:href="#e"/>
  <linearGradient id="p" x2="0" y1="-759.91" y2="683.46" gradientUnits="userSpaceOnUse" xlink:href="#e"/>
  <radialGradient id="l" cx="505.31" cy="340.96" r="17.922" gradientTransform="matrix(4.678 -1.2535 1.066 3.9785 -2624.1 -578.83)" gradientUnits="userSpaceOnUse" xlink:href="#a"/>
  <radialGradient id="k" cx="499.62" cy="357.75" r="13.047" gradientTransform="matrix(7.0129 -.55582 1.711 21.589 -4040.8 -7234.9)" gradientUnits="userSpaceOnUse" xlink:href="#a"/>
  <radialGradient id="j" cx="507.58" cy="332.63" r="17.922" gradientTransform="matrix(5.7514 -1.5411 1.066 3.9785 -3169 -432.83)" gradientUnits="userSpaceOnUse" xlink:href="#a"/>
  <radialGradient id="i" cx="504.93" cy="332.63" r="17.922" gradientTransform="matrix(-3.5987e-6 -5.9543 3.7887 0 -1155.4 3130.6)" gradientUnits="userSpaceOnUse" xlink:href="#a"/>
  <radialGradient id="h" cx="508.93" cy="327.4" r="17.922" gradientTransform="matrix(2.153 -4.4202 4.8799 2.3769 -2608.7 1574)" gradientUnits="userSpaceOnUse" xlink:href="#a"/>
  <radialGradient id="g" cx="506.72" cy="326.56" r="17.922" gradientTransform="matrix(0 -2.6268 3.5592 2.0394e-6 -1051.6 1462.1)" gradientUnits="userSpaceOnUse" xlink:href="#a"/>
  <radialGradient id="f" cx="521.02" cy="324.51" r="17.922" gradientTransform="matrix(0 -2.5516 3.4575 1.9811e-6 -1017 1426)" gradientUnits="userSpaceOnUse" xlink:href="#a"/>
 </defs>
 <g transform="translate(2.1715e-6 -552.01)">
  <g transform="matrix(2.1958 0 0 2.1958 -66.242 -1039.2)">
   <g transform="matrix(.59969 -.02743 .02743 .59969 -49.06 568.12)">
    <path d="m346.47 628.82a14.25 23.024 0 0 1 -28.5 0 14.25 23.024 0 1 1 28.5 0z" fill="url(#d)" stroke="#000" stroke-linecap="round" stroke-linejoin="round" stroke-width="5"/>
    <path d="m311.97 628.82a14.25 23.024 0 0 1 -28.5 0 14.25 23.024 0 1 1 28.5 0z" fill="url(#d)" stroke="#000" stroke-linecap="round" stroke-linejoin="round" stroke-width="5"/>
    <path d="m328.97 628.82a14.25 23.024 0 0 1 -28.5 0 14.25 23.024 0 1 1 28.5 0z" fill="url(#c)" stroke="#000" stroke-linecap="round" stroke-linejoin="round" stroke-width="5"/>
    <path d="m297.25 607.57c-5.8064 0-10.78 5.6304-13 13.688 18.971 5.0743 39.814 8.0342 61.719 8.4375-0.29837-12.285-6.5429-22.125-14.219-22.125-3.3009 0-6.3333 1.8275-8.75 4.875-2.4167-3.0475-5.4491-4.875-8.75-4.875-3.1858 0-6.1261 1.7048-8.5 4.5625-2.3739-2.8577-5.3142-4.5625-8.5-4.5625z" fill-opacity=".3137"/>
   </g>
   <g transform="matrix(.47363 -.36886 .36886 .47363 -179.43 752.54)">
    <path d="m423.47 628.82a14.25 23.024 0 0 1 -28.5 0 14.25 23.024 0 1 1 28.5 0z" fill="url(#t)" stroke="#000" stroke-linecap="round" stroke-linejoin="round" stroke-width="5"/>
    <path d="m388.97 628.82a14.25 23.024 0 0 1 -28.5 0 14.25 23.024 0 1 1 28.5 0z" fill="url(#s)" stroke="#000" stroke-linecap="round" stroke-linejoin="round" stroke-width="5"/>
    <path d="m405.97 628.82a14.25 23.024 0 0 1 -28.5 0 14.25 23.024 0 1 1 28.5 0z" fill="url(#c)" stroke="#000" stroke-linecap="round" stroke-linejoin="round" stroke-width="5"/>
    <path d="m374.94 608.2c-7.6562 0-13.891 9.7905-14.219 22.031 21.881-0.70434 42.616-3.9836 61.438-9.3438-2.3472-7.5156-7.1571-12.687-12.719-12.688-3.3009 0-6.3333 1.8275-8.75 4.875-2.4167-3.0475-5.4491-4.875-8.75-4.875-3.1858 0-6.1261 1.7048-8.5 4.5625-2.3739-2.8577-5.3142-4.5625-8.5-4.5625z" fill-opacity=".3137"/>
   </g>
   <path d="m259.73 819.38a99.391 99.391 0 1 1 -197.18 25.157 99.391 99.391 0 0 1 197.18 -25.157z" fill="#784421" stroke="#000" stroke-linecap="round" stroke-width="3.0016"/>
   <path d="m216.16 875.04c-16.155-0.91863 0.30511 13.052-1.3851 19.078-10.166-3.483-4.5343 11.623-8.308 16.501-8.2522 0.60737-8.4771 9.0356-13.886 12.185-7.3977-2.9515-11.523 5.2894-18.119 6.1309s-11.43-5.9537-19.078-1.3851c-6.0264-1.6902-8.3222-9.4942-16.501-8.308-4.8774-3.7737-6.3106-20.323-12.185-13.886-3.1492-5.4089 5.8484-23.838-6.1309-18.119-0.84151-6.5959 10.845-20.526 1.3851-19.078 1.6902-6.0264 13.283-11.831 8.308-16.501 7.5474-9.7549 18.814-16.633 32.005-18.316s25.824 2.1456 35.579 9.6931c-5.9933 3.9503 9.0356 8.4771 12.185 13.886-10.749 0.82772 5.2893 11.523 6.1309 18.119z" fill="#fff" stroke="#000" stroke-linecap="round" stroke-linejoin="round" stroke-width="3.0016"/>
   <path d="m250.18 784.53c1.6759 8.4333 2.1092 17.057 1.5946 25.626 8.4015 14.761-10.763 43.966-26.141 60.76-18.163 19.662-44.167 31.971-73.024 31.971-18.234 1e-5 -35.318-4.927-50.014-13.507-13.992-10.131-22.79-14.719-14.305-22.854 19.448-18.648 17.044-32.474 4.7531-35.026-27.681-4.9979-49.055 2.887-31.157 41.371 9.8818 21.248 26.248 31.685 38.289 35.738 17.027 13.687 38.656 21.874 62.189 21.874 27.584 0 52.562-11.25 70.575-29.416 10.478-5.2333 20.395-22.536 23.703-40.109 4.2011-22.314 3.5339-28.725-0.19445-49.309-1.9029-9.6868-1.7719-18.661-6.2685-27.119z" fill-opacity=".3137" fill-rule="evenodd"/>
   <g transform="matrix(.31144 -.51321 .51321 .31144 275.72 575.98)">
    <g transform="matrix(.90769 .41964 -.41964 .90769 -652.75 -421.28)">
     <path d="m482.6 382.5c-45.535 23.25 25.964 91.593-17.115 164.68-7.9627 13.51 57.667-5.2496 72.639-76.392 14.56-69.185-12.487-106.82-55.524-88.29z" fill="#784421" fill-rule="evenodd" stroke="#000" stroke-width="5"/>
    </g>
    <path d="m-363.76 128.83c-20.626 2.0028-34.902-12.082-45.205 51.315-7.6501 56.976-40.086 90.15-53.954 93.202 5.3812 5.8928 54.308-16.947 67.722-80.687 12.74-60.537 26.337-27.6 38.462-61.63l-7.0254-2.1999z" fill-opacity=".3137" fill-rule="evenodd"/>
   </g>
   <path d="m226.37 795.76c7.6227-3.7618 16.786 2.448 18.862 6.175-8.3087-1.0292-12.079-1.1373-13.931 0.9418 1.1534 1.8932 10.879 2.6922 15.495 15.495-8.0559-4.1869-14.693-9.3671-16.745-6.6286 2.0984 2.7787 4.7932 8.1621 4.1746 13.92-4.9687-5.0696-10.07-10.443-14.082-10.094" fill="#784421" fill-rule="evenodd" stroke="#000" stroke-linecap="round" stroke-linejoin="round" stroke-width="3.0016"/>
   <path d="m124.07 759.35c-18.6 2.373-31.478 21.767-28.733 43.288s20.081 37.06 38.681 34.687c10.931-1.3946 19.86-8.6709 24.826-18.799 7.35 8.5636 17.841 13.355 28.776 11.96 18.6-2.373 31.478-21.767 28.733-43.288s-20.081-37.06-38.681-34.687c-10.934 1.395-19.886 8.6693-24.851 18.802-7.3494-8.5548-17.821-13.358-28.75-11.964z" fill="#fff" stroke="#000" stroke-linecap="round" stroke-width="3.0016"/>
   <g transform="matrix(.58253 -.14504 .14504 .58253 -102.86 625.66)" fill-rule="evenodd">
    <path d="m348.13 421.17c-9.2133 1.1755-17.921 12.697-16.695 19.116s20.689 31.333 24.294 30.873 14.255-28.668 12.891-36.165-14.55-15.13-20.49-13.824z" fill-opacity=".3137"/>
    <path d="m344.68 410.91c-9.2133 1.1755-18.05 11.684-16.906 17.464s20.267 28.028 23.872 27.568 14.588-26.056 13.32-32.807-14.34-13.477-20.286-12.225z" fill="url(#r)" stroke="#000" stroke-width="5"/>
   </g>
   <path d="m95.541 827.32c15.051 26.749-34.397 39.971-37.124 90.829-0.50417 9.4005-36.101-24.563-19.963-65.113 15.694-39.434 41.717-49.273 57.087-25.715z" fill="#784421" fill-rule="evenodd" stroke="#000" stroke-width="3.0016"/>
   <path d="m88.594 813.34c-8.323-1.7274-15.634 6.5842-16.707 10.713 7.7842-3.0824 11.407-4.1337 13.721-2.5862-0.64111 2.1221-9.8542 5.3373-11.108 18.89 6.7466-6.0754 11.87-12.756 14.545-10.621-1.3335 3.2165-2.5903 9.1041-0.54595 14.522 3.5367-6.1548 7.1259-12.637 11.097-13.306" fill="#784421" fill-rule="evenodd" stroke="#000" stroke-linecap="round" stroke-linejoin="round" stroke-width="3.0016"/>
   <path d="m158.94 760.99c-1.9398-20.796 8.7369-29.369 8.7369-29.369s-1.9249 12.394 2.7621 6.7607c7.2575-8.7221 43.089-12.22 43.089-12.22s-43.873 11.475-54.588 34.829z" fill="#fff" fill-rule="evenodd" stroke="#000" stroke-linejoin="round" stroke-width="3.0016"/>
   <path d="m145.69 763.9c-5.1911-20.231-18.134-24.699-18.134-24.699s5.9939 11.017-0.31892 7.2962c-9.7749-5.7617-44.685 3.0355-44.685 3.0355s45.172-4.0021 63.138 14.367z" fill="#fff" fill-rule="evenodd" stroke="#000" stroke-linejoin="round" stroke-width="3.0016"/>
   <g transform="matrix(.60032 0 0 .60032 -47.629 573.01)">
    <path d="m337.69 381.16a16.387 16.387 0 1 1 -32.511 4.1478 16.387 16.387 0 1 1 32.511 -4.1478z" stroke="#000" stroke-linecap="round" stroke-width="5"/>
    <path d="m319.06 377.75a4.25 4.25 0 0 1 -8.4316 1.0757 4.25 4.25 0 1 1 8.4316 -1.0757z" fill="#fff"/>
   </g>
   <g transform="matrix(.1643 .5774 .5774 -.1643 -112.98 642.66)">
    <path d="m377.1 370.34a16.387 16.387 0 1 1 -28.99 15.288 16.387 16.387 0 1 1 28.99 -15.288z" stroke="#000" stroke-linecap="round" stroke-width="5"/>
    <path d="m360.23 372.5a4.25 4.25 0 0 1 -8.4317 1.0757 4.25 4.25 0 1 1 8.4317 -1.0757z" fill="#fff"/>
   </g>
   <g transform="matrix(.26186 -.05931 .05931 .26186 15.195 776.28)">
    <path d="m104.95 226.39c-42.321 0-77.931 32.181-76.693 71.831l7.5072 240.4c0.59536 19.065 31.036 34.55 69.186 34.55s68.505-15.485 69.101-34.55l7.5072-240.4c1.2382-39.65-34.287-71.831-76.608-71.831z" fill="#008080"/>
    <g transform="matrix(1.0957 0 0 1.0558 -61.096 75.468)">
     <path d="m114.55 45.628c22.231 24.955 61.68 21.227 72.125-1.4142l15.556-77.782-101.58-1.3766 13.898 80.573z" fill-rule="evenodd"/>
     <path d="m151.54-62.324c28.146-4.5e-5 50.978 11.663 50.978 26.126s-22.832 26.266-50.978 26.266-50.978-11.803-50.978-26.266 22.832-26.126 50.978-26.126z"/>
    </g>
    <path transform="matrix(4.0626 0 0 4.0118 -2227.1 -1366.2)" d="m573.91 361.69c-3.6006-1e-5 -6.8813 0.70629-9.4688 2s-4.8125 3.401-4.8125 6.3438v5c1e-5 2.5112 1.6168 4.4023 3.7188 5.7188-0.30298 4.6535-0.5 9.6287-0.5 14.969 1e-5 0.84626 0.0131 1.6163 0.0312 2.4062-6.3088 3.5393-10.765 9.9159-10.531 17.406l1.875 60.094c0.11364 3.64 2.8912 6.4078 6.4375 8.1875s8.1579 2.7812 13.25 2.7812 9.7037-1.0016 13.25-2.7812 6.3238-4.5475 6.4375-8.1875l1.875-60.094c0.234-7.4926-4.225-13.868-10.531-17.406 0.0181-0.78987 0.0312-1.5598 0.0312-2.4062 3e-5 -5.4075-0.22249-10.456-0.53125-15.156 2.0413-1.307 3.75-3.0622 3.75-5.5312v-5c-1e-5 -2.9427-2.2251-5.05-4.8125-6.3438s-5.8682-2-9.4688-2z"/>
    <path d="m104.95 92.625c-26.201 0-47.567 10.683-47.567 23.784v20.054c-4.2e-5 6.8503 5.8448 12.995 15.165 17.32-1.4447 19.905-2.2374 42.007-2.2374 65.383 0 5.0058 0.09319 9.9488 0.16574 14.834-25.444 11.79-43.058 36.101-42.18 64.223l7.4582 240.4c0.59531 19.066 31.046 34.556 69.195 34.556s68.517-15.491 69.113-34.556l7.4582-240.4c0.8785-28.13-16.751-52.437-42.18-64.223 0.0721-4.8848 0.16578-9.8278 0.16578-14.834 0-23.375-0.80161-45.479-2.2375-65.383 0.40715-0.18941 0.84945-0.38381 1.243-0.58012 8.5959-4.2875 13.922-10.189 13.922-16.74v-20.054c-5e-5 -13.101-21.283-23.784-47.484-23.784z" fill="#32a3a3"/>
    <path d="m104.95 226.39c-42.321 0-77.931 32.181-76.693 71.831l7.5072 240.4c0.59536 19.065 31.036 34.55 69.186 34.55s68.505-15.485 69.101-34.55l7.5072-240.4c1.2382-39.65-34.287-71.831-76.608-71.831z" fill="#008080"/>
    <path d="m29.17 348.65 5.6139 186.7c0.40576 13.446 10.326 23.666 22.989 30.24s29.144 10.254 47.325 10.254 34.635-3.6795 47.297-10.254 22.583-16.793 22.989-30.24l5.5578-183.6c-7.1905 14.118-38.21 24.756-75.311 24.756-39.771 0-72.524-12.221-76.462-27.854z" fill="#88232d"/>
    <path transform="matrix(.91474 0 0 .67222 -354.6 86.065)" d="m585.48 390.99c0 30.07-37.357 54.447-83.439 54.447s-83.439-24.377-83.439-54.447 37.357-54.447 83.439-54.447 83.439 24.377 83.439 54.447z" fill="#8a4e49"/>
    <path d="m104.95 92.624c-26.201-6e-5 -47.567 10.683-47.567 23.783v20.054c-6e-5 13.101 21.366 23.7 47.567 23.7s47.484-10.6 47.484-23.7v-20.054c-5e-5 -13.1-21.283-23.783-47.484-23.783zm0 3.8948c17.157-5.9e-5 31.076 6.9178 31.076 15.496s-13.918 15.579-31.076 15.579-31.076-7.0006-31.076-15.579 13.918-15.496 31.076-15.496z" fill="url(#l)"/>
    <path d="m72.549 153.7c-1.4484 19.926-2.2375 42.059-2.2375 65.466 0 5.0057 0.09322 9.9488 0.16575 14.833 10.429-4.8324 22.17-7.6239 34.473-7.6239s23.977 2.7975 34.391 7.6239c0.072-4.8847 0.16574-9.8278 0.16574-14.833-2e-5 -23.375-0.80158-45.479-2.2374-65.383-8.4723 3.9351-19.823 6.3809-32.319 6.3809-12.532 0-23.897-2.5081-32.402-6.4638z" fill="url(#k)"/>
    <path d="m104.95 92.624c-26.201-6e-5 -47.567 10.683-47.567 23.783v20.054c-6e-5 13.101 21.366 23.7 47.567 23.7s47.484-10.6 47.484-23.7v-20.054c-5e-5 -13.1-21.283-23.783-47.484-23.783zm0 3.8948c17.157-5.9e-5 31.076 6.9178 31.076 15.496s-13.918 15.579-31.076 15.579-31.076-7.0006-31.076-15.579 13.918-15.496 31.076-15.496z" fill="url(#j)"/>
    <path d="m104.95 92.624c-26.201-6e-5 -47.567 10.683-47.567 23.783v20.054c-6e-5 13.101 21.366 23.7 47.567 23.7s47.484-10.6 47.484-23.7v-20.054c-5e-5 -13.1-21.283-23.783-47.484-23.783zm0 3.8948c17.157-5.9e-5 31.076 6.9178 31.076 15.496s-13.918 15.579-31.076 15.579-31.076-7.0006-31.076-15.579 13.918-15.496 31.076-15.496z" fill="url(#i)"/>
    <path d="m104.95 92.624c-26.201-6e-5 -47.567 10.683-47.567 23.783v20.054c-6e-5 13.101 21.366 23.7 47.567 23.7s47.484-10.6 47.484-23.7v-20.054c-5e-5 -13.1-21.283-23.783-47.484-23.783zm0 3.8948c17.157-5.9e-5 31.076 6.9178 31.076 15.496s-13.918 15.579-31.076 15.579-31.076-7.0006-31.076-15.579 13.918-15.496 31.076-15.496z" fill="url(#h)"/>
    <path d="m57.881 113.26c-0.13822 0.57922-0.24721 1.1554-0.33148 1.7422-0.08786 0.61168-0.16573 1.2681-0.16573 1.8938v17.573c-6e-5 11.975 21.366 21.664 47.567 21.664s47.484-9.689 47.484-21.664v-17.573c0-0.62563-0.0778-1.2821-0.16573-1.8938-0.0844-0.58674-0.19374-1.1629-0.33148-1.7422-3.2234 13.115-23.029 23.179-46.987 23.179s-43.835-10.063-47.069-23.179z" fill="#008080"/>
    <path d="m72.549 153.7c-1.4484 19.926-2.2375 42.059-2.2375 65.466 0 5.0057 0.09322 9.9488 0.16575 14.833 10.429-4.8324 22.17-7.6239 34.473-7.6239s23.977 2.7975 34.391 7.6239c0.072-4.8847 0.16574-9.8278 0.16574-14.833-2e-5 -23.375-0.80158-45.479-2.2374-65.383-8.4723 3.9351-19.823 6.3809-32.319 6.3809-12.532 0-23.897-2.5081-32.402-6.4638z" fill="#008080"/>
    <path d="m89.087 157.43c-1.3886 18.963-2.1324 39.753-2.1324 61.737 2.6e-5 5.0057 2.2e-4 9.9488 0.07897 14.833-27.632 11.79-46.761 36.1-45.808 64.223l7.0291 193.17c12.261 5.8672 29.448 10.318 49.441 12.43l-6.0814-205.6c-0.62429-22.717 9.4404-43.019 25.115-56.185l-2.2904-81.957c-1.3697 0.0655-2.7838 0.0829-4.1859 0.0829-7.6488 0-14.835-0.97835-21.166-2.7346z" fill="url(#q)"/>
    <path d="m85.928 156.43c-0.98918 19.223-1.5006 40.369-1.5006 62.732 3.4e-5 5.0057 0.02491 9.9488 0.07898 14.833-18.977 11.79-32.089 36.1-31.434 64.223l4.8177 246.2c8.4208 5.8672 20.23 10.318 33.961 12.43l-4.1859-258.63c-0.42868-22.717 6.4522-43.019 17.217-56.185l-1.5796-82.206c-6.3046-0.51036-12.204-1.673-17.375-3.3976z" fill="url(#p)"/>
    <path d="m104.95 96.519c17.157-5.9e-5 31.076 6.9178 31.076 15.496s-13.918 15.579-31.076 15.579-31.076-7.0006-31.076-15.579 13.918-15.496 31.076-15.496z" fill="url(#g)"/>
    <path d="m104.95 96.519c17.157-5.9e-5 31.076 6.9178 31.076 15.496s-13.918 15.579-31.076 15.579-31.076-7.0006-31.076-15.579 13.918-15.496 31.076-15.496z" fill="url(#o)"/>
    <path d="m104.95 96.519c17.157-5.9e-5 31.076 6.9178 31.076 15.496s-13.918 15.579-31.076 15.579-31.076-7.0006-31.076-15.579 13.918-15.496 31.076-15.496z" fill="url(#f)"/>
    <path d="m73.76 113.06c13.3 21.893 59.075 19.863 63.276-1.2407l13.648-68.238-89.241-0.72359 12.318 70.203z" fill="url(#n)" fill-rule="evenodd"/>
    <path d="m106.21 18.355c24.693-4e-5 44.723 10.232 44.723 22.921s-20.031 23.043-44.723 23.043-44.723-10.355-44.723-23.043 20.031-22.921 44.723-22.921z" fill="#654100"/>
    <path d="m106.21 18.418c24.693-4e-5 44.723 10.232 44.723 22.921s-20.031 23.043-44.723 23.043-44.723-10.355-44.723-23.043 20.031-22.921 44.723-22.921z" fill="url(#m)"/>
   </g>
  </g>
 </g>
</svg>
